<mxfile host="app.diagrams.net" modified="2022-08-26T07:56:50.836Z" agent="5.0 (Windows NT 10.0; Win64; x64) AppleWebKit/537.36 (KHTML, like Gecko) Chrome/104.0.5112.102 Safari/537.36 Edg/104.0.1293.63" etag="AICXYrcwr08-Xde-XN6y" version="20.2.6" type="github" pages="2">
  <diagram id="A9Q-UcqaSSHVSJC6LxS7" name="第 1 页">
    <mxGraphModel dx="3874" dy="1157" grid="0" gridSize="10" guides="1" tooltips="1" connect="1" arrows="1" fold="1" page="0" pageScale="1" pageWidth="827" pageHeight="1169" background="#ffffff" math="0" shadow="1">
      <root>
        <mxCell id="0" />
        <mxCell id="1" parent="0" />
        <mxCell id="O27Q3A0dz7naOp8tt0iU-1" value="" style="ellipse;whiteSpace=wrap;html=1;fillColor=#f8cecc;strokeColor=#b85450;" parent="1" vertex="1">
          <mxGeometry x="-1625" y="76" width="215" height="219" as="geometry" />
        </mxCell>
        <mxCell id="O27Q3A0dz7naOp8tt0iU-2" value="" style="ellipse;whiteSpace=wrap;html=1;fillColor=#fff2cc;strokeColor=#d6b656;" parent="1" vertex="1">
          <mxGeometry x="-650" y="10" width="210" height="210" as="geometry" />
        </mxCell>
        <mxCell id="O27Q3A0dz7naOp8tt0iU-3" value="&lt;font style=&quot;font-size: 19px;&quot;&gt;frontend&lt;/font&gt;" style="text;html=1;strokeColor=none;fillColor=none;align=center;verticalAlign=middle;whiteSpace=wrap;rounded=0;" parent="1" vertex="1">
          <mxGeometry x="-1552.5" y="87" width="75" height="30" as="geometry" />
        </mxCell>
        <mxCell id="O27Q3A0dz7naOp8tt0iU-11" value="&lt;font style=&quot;font-size: 19px;&quot;&gt;backend&lt;/font&gt;" style="text;html=1;strokeColor=none;fillColor=none;align=center;verticalAlign=middle;whiteSpace=wrap;rounded=0;" parent="1" vertex="1">
          <mxGeometry x="-583" y="30" width="75" height="30" as="geometry" />
        </mxCell>
        <mxCell id="O27Q3A0dz7naOp8tt0iU-22" value="Vue.js" style="rounded=1;whiteSpace=wrap;html=1;strokeWidth=2;fillWeight=4;hachureGap=8;hachureAngle=45;fillColor=#dae8fc;sketch=1;fontSize=19;strokeColor=#6c8ebf;" parent="1" vertex="1">
          <mxGeometry x="-1567.5" y="134" width="100" height="30" as="geometry" />
        </mxCell>
        <mxCell id="O27Q3A0dz7naOp8tt0iU-23" value="Vue-router" style="rounded=1;whiteSpace=wrap;html=1;strokeWidth=2;fillWeight=4;hachureGap=8;hachureAngle=45;fillColor=#dae8fc;sketch=1;fontSize=19;strokeColor=#6c8ebf;" parent="1" vertex="1">
          <mxGeometry x="-1567.5" y="170" width="100" height="30" as="geometry" />
        </mxCell>
        <mxCell id="O27Q3A0dz7naOp8tt0iU-24" value="localStorage" style="rounded=1;whiteSpace=wrap;html=1;strokeWidth=2;fillWeight=4;hachureGap=8;hachureAngle=45;fillColor=#dae8fc;sketch=1;fontSize=19;strokeColor=#6c8ebf;" parent="1" vertex="1">
          <mxGeometry x="-1570" y="244" width="110" height="30" as="geometry" />
        </mxCell>
        <mxCell id="O27Q3A0dz7naOp8tt0iU-27" value="golang" style="rounded=1;whiteSpace=wrap;html=1;strokeWidth=2;fillWeight=4;hachureGap=8;hachureAngle=45;fillColor=#dae8fc;sketch=1;fontSize=19;strokeColor=#6c8ebf;" parent="1" vertex="1">
          <mxGeometry x="-595.5" y="80" width="100" height="30" as="geometry" />
        </mxCell>
        <mxCell id="O27Q3A0dz7naOp8tt0iU-28" value="GIN" style="rounded=1;whiteSpace=wrap;html=1;strokeWidth=2;fillWeight=4;hachureGap=8;hachureAngle=45;fillColor=#dae8fc;sketch=1;fontSize=19;strokeColor=#6c8ebf;" parent="1" vertex="1">
          <mxGeometry x="-595.5" y="120" width="100" height="30" as="geometry" />
        </mxCell>
        <mxCell id="O27Q3A0dz7naOp8tt0iU-29" value="GoCache" style="rounded=1;whiteSpace=wrap;html=1;strokeWidth=2;fillWeight=4;hachureGap=8;hachureAngle=45;fillColor=#dae8fc;sketch=1;fontSize=19;strokeColor=#6c8ebf;" parent="1" vertex="1">
          <mxGeometry x="-595" y="160" width="100" height="30" as="geometry" />
        </mxCell>
        <mxCell id="O27Q3A0dz7naOp8tt0iU-37" value="" style="shape=curlyBracket;whiteSpace=wrap;html=1;rounded=1;fontSize=19;" parent="1" vertex="1">
          <mxGeometry x="-1410" y="31" width="20" height="274" as="geometry" />
        </mxCell>
        <mxCell id="O27Q3A0dz7naOp8tt0iU-41" value="&lt;b&gt;Different sidebars correspond to different routes&lt;/b&gt;" style="text;html=1;align=left;verticalAlign=middle;whiteSpace=wrap;rounded=0;fontSize=19;shadow=0;glass=0;fillStyle=auto;" parent="1" vertex="1">
          <mxGeometry x="-1380" y="20" width="450" height="30" as="geometry" />
        </mxCell>
        <mxCell id="O27Q3A0dz7naOp8tt0iU-43" value="&lt;b&gt;Refresh the page to get subapps and versions on different servers&lt;/b&gt;" style="text;html=1;align=left;verticalAlign=middle;whiteSpace=wrap;rounded=0;fontSize=19;shadow=0;glass=0;fillStyle=auto;" parent="1" vertex="1">
          <mxGeometry x="-1380" y="70" width="343" height="30" as="geometry" />
        </mxCell>
        <mxCell id="O27Q3A0dz7naOp8tt0iU-51" value="" style="edgeStyle=orthogonalEdgeStyle;elbow=horizontal;endArrow=classic;html=1;rounded=0;fontSize=19;curved=1;entryX=0;entryY=0;entryDx=0;entryDy=0;fillColor=#f5f5f5;strokeColor=#000000;" parent="1" source="O27Q3A0dz7naOp8tt0iU-41" target="O27Q3A0dz7naOp8tt0iU-23" edge="1">
          <mxGeometry width="50" height="50" relative="1" as="geometry">
            <mxPoint x="-1280" y="10" as="sourcePoint" />
            <mxPoint x="-1585" y="150" as="targetPoint" />
            <Array as="points">
              <mxPoint x="-1280" y="-50" />
              <mxPoint x="-1660" y="-50" />
              <mxPoint x="-1660" y="170" />
            </Array>
          </mxGeometry>
        </mxCell>
        <mxCell id="uOYiUQgheM6uBUmsLffs-1" value="" style="edgeStyle=orthogonalEdgeStyle;elbow=horizontal;endArrow=classic;html=1;rounded=0;fontSize=19;curved=1;entryX=0;entryY=0.5;entryDx=0;entryDy=0;fillColor=#f5f5f5;strokeColor=#000000;" parent="1" target="O27Q3A0dz7naOp8tt0iU-29" edge="1" source="O27Q3A0dz7naOp8tt0iU-43">
          <mxGeometry width="50" height="50" relative="1" as="geometry">
            <mxPoint x="-980" y="80" as="sourcePoint" />
            <mxPoint x="-870" y="270" as="targetPoint" />
            <Array as="points">
              <mxPoint x="-692" y="80" />
              <mxPoint x="-692" y="175" />
            </Array>
          </mxGeometry>
        </mxCell>
        <mxCell id="uOYiUQgheM6uBUmsLffs-4" value="Bamboo" style="ellipse;whiteSpace=wrap;html=1;shadow=0;glass=0;fillStyle=auto;fontSize=19;fillColor=#dae8fc;strokeColor=#6c8ebf;" parent="1" vertex="1">
          <mxGeometry x="-770" y="490" width="120" height="80" as="geometry" />
        </mxCell>
        <mxCell id="uOYiUQgheM6uBUmsLffs-5" value="AWS" style="ellipse;whiteSpace=wrap;html=1;shadow=0;glass=0;fillStyle=auto;fontSize=19;fillColor=#e1d5e7;strokeColor=#9673a6;" parent="1" vertex="1">
          <mxGeometry x="-377.5" y="500" width="120" height="80" as="geometry" />
        </mxCell>
        <mxCell id="uOYiUQgheM6uBUmsLffs-7" value="" style="curved=1;endArrow=classic;html=1;rounded=0;fontSize=19;elbow=vertical;exitX=0.447;exitY=1.007;exitDx=0;exitDy=0;exitPerimeter=0;entryX=0.067;entryY=0.244;entryDx=0;entryDy=0;entryPerimeter=0;" parent="1" source="O27Q3A0dz7naOp8tt0iU-2" target="uOYiUQgheM6uBUmsLffs-5" edge="1">
          <mxGeometry width="50" height="50" relative="1" as="geometry">
            <mxPoint x="-830" y="220" as="sourcePoint" />
            <mxPoint x="-780" y="170" as="targetPoint" />
            <Array as="points">
              <mxPoint x="-600" y="310" />
            </Array>
          </mxGeometry>
        </mxCell>
        <mxCell id="uOYiUQgheM6uBUmsLffs-8" value="" style="curved=1;endArrow=classic;html=1;rounded=0;fontSize=19;elbow=vertical;entryX=1;entryY=0.5;entryDx=0;entryDy=0;exitX=0.609;exitY=-0.036;exitDx=0;exitDy=0;exitPerimeter=0;" parent="1" source="uOYiUQgheM6uBUmsLffs-5" target="O27Q3A0dz7naOp8tt0iU-29" edge="1">
          <mxGeometry width="50" height="50" relative="1" as="geometry">
            <mxPoint x="-440" y="320" as="sourcePoint" />
            <mxPoint x="-470" y="220" as="targetPoint" />
            <Array as="points">
              <mxPoint x="-400" y="230" />
            </Array>
          </mxGeometry>
        </mxCell>
        <mxCell id="uOYiUQgheM6uBUmsLffs-10" value="&lt;font style=&quot;font-size: 16px;&quot;&gt;Save the data to the cache&lt;/font&gt;" style="text;html=1;strokeColor=none;fillColor=none;align=center;verticalAlign=middle;whiteSpace=wrap;rounded=0;shadow=0;glass=0;fillStyle=auto;fontSize=19;" parent="1" vertex="1">
          <mxGeometry x="-460" y="220" width="150" height="30" as="geometry" />
        </mxCell>
        <mxCell id="uOYiUQgheM6uBUmsLffs-11" value="&lt;b&gt;Hard refresh and&amp;nbsp;customize cache expiration time&lt;/b&gt;" style="text;html=1;align=left;verticalAlign=middle;whiteSpace=wrap;rounded=0;fontSize=19;shadow=0;glass=0;fillStyle=auto;" parent="1" vertex="1">
          <mxGeometry x="-1385" y="130" width="335" height="30" as="geometry" />
        </mxCell>
        <mxCell id="uOYiUQgheM6uBUmsLffs-13" value="" style="curved=1;endArrow=classic;html=1;rounded=0;fontSize=19;fontColor=#000000;strokeColor=#000000;elbow=vertical;entryX=0;entryY=0.75;entryDx=0;entryDy=0;exitX=1;exitY=0.5;exitDx=0;exitDy=0;" parent="1" source="uOYiUQgheM6uBUmsLffs-11" target="O27Q3A0dz7naOp8tt0iU-29" edge="1">
          <mxGeometry width="50" height="50" relative="1" as="geometry">
            <mxPoint x="-970" y="150" as="sourcePoint" />
            <mxPoint x="-770" y="150" as="targetPoint" />
            <Array as="points">
              <mxPoint x="-940" y="153" />
              <mxPoint x="-825" y="206" />
            </Array>
          </mxGeometry>
        </mxCell>
        <mxCell id="uOYiUQgheM6uBUmsLffs-14" value="&lt;b&gt;Get the current version of subapps on different servers&lt;/b&gt;" style="text;html=1;align=left;verticalAlign=middle;whiteSpace=wrap;rounded=0;fontSize=19;shadow=0;glass=0;fillStyle=auto;" parent="1" vertex="1">
          <mxGeometry x="-1380" y="193" width="360" height="30" as="geometry" />
        </mxCell>
        <mxCell id="uOYiUQgheM6uBUmsLffs-18" value="" style="curved=1;endArrow=classic;html=1;rounded=0;fontSize=19;fontColor=#000000;strokeColor=#000000;elbow=vertical;exitX=1;exitY=0.25;exitDx=0;exitDy=0;entryX=0.223;entryY=0.926;entryDx=0;entryDy=0;entryPerimeter=0;" parent="1" source="uOYiUQgheM6uBUmsLffs-14" target="O27Q3A0dz7naOp8tt0iU-2" edge="1">
          <mxGeometry width="50" height="50" relative="1" as="geometry">
            <mxPoint x="-830" y="300" as="sourcePoint" />
            <mxPoint x="-780" y="250" as="targetPoint" />
            <Array as="points">
              <mxPoint x="-830" y="264" />
            </Array>
          </mxGeometry>
        </mxCell>
        <mxCell id="uOYiUQgheM6uBUmsLffs-19" value="&lt;b&gt;Select the versions from the drop-down lists, click the download button&lt;/b&gt;" style="text;html=1;align=left;verticalAlign=middle;whiteSpace=wrap;rounded=0;fontSize=19;shadow=0;glass=0;fillStyle=auto;" parent="1" vertex="1">
          <mxGeometry x="-1378" y="279" width="365" height="30" as="geometry" />
        </mxCell>
        <mxCell id="uOYiUQgheM6uBUmsLffs-21" value="" style="curved=1;endArrow=classic;html=1;rounded=0;fontSize=19;fontColor=#000000;strokeColor=#000000;elbow=vertical;entryX=0.623;entryY=1.129;entryDx=0;entryDy=0;entryPerimeter=0;exitX=1;exitY=0.5;exitDx=0;exitDy=0;" parent="1" source="uOYiUQgheM6uBUmsLffs-19" target="O27Q3A0dz7naOp8tt0iU-24" edge="1">
          <mxGeometry width="50" height="50" relative="1" as="geometry">
            <mxPoint x="-1000" y="280" as="sourcePoint" />
            <mxPoint x="-1370" y="350" as="targetPoint" />
            <Array as="points">
              <mxPoint x="-890" y="360" />
              <mxPoint x="-890" y="460" />
              <mxPoint x="-1000" y="510" />
              <mxPoint x="-1260" y="520" />
              <mxPoint x="-1410" y="410" />
            </Array>
          </mxGeometry>
        </mxCell>
        <mxCell id="uOYiUQgheM6uBUmsLffs-24" value="" style="curved=1;endArrow=classic;html=1;rounded=0;fontSize=19;fontColor=#000000;strokeColor=#000000;elbow=vertical;entryX=0.348;entryY=0.99;entryDx=0;entryDy=0;entryPerimeter=0;exitX=0.5;exitY=0;exitDx=0;exitDy=0;" parent="1" source="uOYiUQgheM6uBUmsLffs-4" target="O27Q3A0dz7naOp8tt0iU-2" edge="1">
          <mxGeometry width="50" height="50" relative="1" as="geometry">
            <mxPoint x="-780" y="340" as="sourcePoint" />
            <mxPoint x="-730" y="290" as="targetPoint" />
            <Array as="points">
              <mxPoint x="-700" y="330" />
            </Array>
          </mxGeometry>
        </mxCell>
        <mxCell id="uOYiUQgheM6uBUmsLffs-25" value="" style="curved=1;endArrow=classic;html=1;rounded=0;fontSize=19;fontColor=#000000;strokeColor=#000000;elbow=vertical;exitX=0.998;exitY=0.644;exitDx=0;exitDy=0;entryX=0;entryY=0.5;entryDx=0;entryDy=0;exitPerimeter=0;" parent="1" source="uOYiUQgheM6uBUmsLffs-4" target="uOYiUQgheM6uBUmsLffs-5" edge="1">
          <mxGeometry width="50" height="50" relative="1" as="geometry">
            <mxPoint x="-780" y="340" as="sourcePoint" />
            <mxPoint x="-520" y="370" as="targetPoint" />
            <Array as="points">
              <mxPoint x="-600" y="590" />
            </Array>
          </mxGeometry>
        </mxCell>
        <mxCell id="uOYiUQgheM6uBUmsLffs-26" value="&lt;font style=&quot;font-size: 16px;&quot;&gt;Push code&lt;/font&gt;" style="text;html=1;strokeColor=none;fillColor=none;align=center;verticalAlign=middle;whiteSpace=wrap;rounded=0;shadow=0;glass=0;fillStyle=auto;fontSize=19;fontColor=#000000;" parent="1" vertex="1">
          <mxGeometry x="-610" y="570" width="102" height="30" as="geometry" />
        </mxCell>
        <mxCell id="uOYiUQgheM6uBUmsLffs-28" value="&lt;font style=&quot;font-size: 16px;&quot;&gt;downlaod the config.json and save the config information to localStorage in browser,which can be used in vantage tool&lt;/font&gt;" style="text;html=1;strokeColor=none;fillColor=none;align=center;verticalAlign=middle;whiteSpace=wrap;rounded=0;shadow=0;glass=0;fillStyle=auto;fontSize=19;fontColor=#000000;" parent="1" vertex="1">
          <mxGeometry x="-1292" y="452" width="342" height="30" as="geometry" />
        </mxCell>
        <mxCell id="uOYiUQgheM6uBUmsLffs-30" value="&lt;font style=&quot;font-size: 16px;&quot;&gt;Modify the config versions while deploying&lt;/font&gt;" style="text;html=1;strokeColor=none;fillColor=none;align=center;verticalAlign=middle;whiteSpace=wrap;rounded=0;shadow=0;glass=0;fillStyle=auto;fontSize=19;fontColor=#000000;" parent="1" vertex="1">
          <mxGeometry x="-770" y="400" width="210" height="30" as="geometry" />
        </mxCell>
        <mxCell id="uOYiUQgheM6uBUmsLffs-31" value="&lt;font style=&quot;font-size: 16px;&quot;&gt;Get the data from the cache first&lt;/font&gt;" style="text;html=1;strokeColor=none;fillColor=none;align=center;verticalAlign=middle;whiteSpace=wrap;rounded=0;shadow=0;glass=0;fillStyle=auto;fontSize=19;fontColor=#000000;" parent="1" vertex="1">
          <mxGeometry x="-846" y="46" width="177" height="30" as="geometry" />
        </mxCell>
        <mxCell id="uOYiUQgheM6uBUmsLffs-33" value="&lt;font style=&quot;font-size: 16px;&quot;&gt;If there is no data in the cache, get it from the server (S3 api)&lt;/font&gt;" style="text;html=1;strokeColor=none;fillColor=none;align=center;verticalAlign=middle;whiteSpace=wrap;rounded=0;shadow=0;glass=0;fillStyle=auto;fontSize=19;fontColor=#000000;" parent="1" vertex="1">
          <mxGeometry x="-630" y="290" width="200" height="30" as="geometry" />
        </mxCell>
        <mxCell id="uOYiUQgheM6uBUmsLffs-34" value="&lt;font style=&quot;font-size: 16px;&quot;&gt;Empty cache and get data from AWS again, modify cache expiration time&lt;/font&gt;" style="text;html=1;strokeColor=none;fillColor=none;align=center;verticalAlign=middle;whiteSpace=wrap;rounded=0;shadow=0;glass=0;fillStyle=auto;fontSize=19;fontColor=#000000;" parent="1" vertex="1">
          <mxGeometry x="-926" y="143" width="220" height="30" as="geometry" />
        </mxCell>
        <mxCell id="uOYiUQgheM6uBUmsLffs-35" value="&lt;font style=&quot;font-size: 16px;&quot;&gt;Get it from the backend. If bamboo hasn&#39;t sent a post request to the backend, the default config version is &quot;stable&quot;&lt;/font&gt;" style="text;html=1;strokeColor=none;fillColor=none;align=center;verticalAlign=middle;whiteSpace=wrap;rounded=0;shadow=0;glass=0;fillStyle=auto;fontSize=19;fontColor=#000000;" parent="1" vertex="1">
          <mxGeometry x="-973" y="254" width="326.5" height="30" as="geometry" />
        </mxCell>
        <mxCell id="uOYiUQgheM6uBUmsLffs-37" value="&lt;h1&gt;&lt;font style=&quot;font-size: 34px;&quot;&gt;Vantage Webapp Version Management System&amp;nbsp;&lt;/font&gt;&lt;/h1&gt;" style="text;html=1;spacing=5;spacingTop=-20;whiteSpace=wrap;overflow=hidden;rounded=0;shadow=0;glass=0;fillStyle=hatch;fontSize=16;fillColor=#99CCFF;" parent="1" vertex="1">
          <mxGeometry x="-1351" y="-151" width="780" height="60" as="geometry" />
        </mxCell>
        <mxCell id="ickECG6CNu-7Yrr49EZT-1" value="ElementUI" style="rounded=1;whiteSpace=wrap;html=1;strokeWidth=2;fillWeight=4;hachureGap=8;hachureAngle=45;fillColor=#dae8fc;sketch=1;fontSize=19;strokeColor=#6c8ebf;" parent="1" vertex="1">
          <mxGeometry x="-1570" y="207" width="110" height="30" as="geometry" />
        </mxCell>
      </root>
    </mxGraphModel>
  </diagram>
  <diagram id="2cZ35FefY5UWwvedoEOA" name="第 2 页">
    <mxGraphModel dx="654" dy="504" grid="1" gridSize="10" guides="1" tooltips="1" connect="1" arrows="1" fold="1" page="0" pageScale="1" pageWidth="827" pageHeight="1169" math="0" shadow="0">
      <root>
        <mxCell id="0" />
        <mxCell id="1" parent="0" />
      </root>
    </mxGraphModel>
  </diagram>
</mxfile>
